<svg width="120" height="30" viewBox="0 0 120 30" fill="none" xmlns="http://www.w3.org/2000/svg">
<g id="Group 1321315535">
<g id="Group 1321315524">
<ellipse id="Ellipse 827" cx="10.8439" cy="18.4994" rx="10.8439" ry="10.8439" fill="#8672FF"/>
<path id="Union" fill-rule="evenodd" clip-rule="evenodd" d="M20.0925 18.2857C25.142 18.2857 29.2354 14.1923 29.2354 9.14287C29.2354 4.0934 25.142 0 20.0925 0C15.0431 0 10.9497 4.0934 10.9497 9.14287C10.9497 10.2798 11.1572 11.3683 11.5365 12.3725C11.3092 12.3467 11.0782 12.3334 10.844 12.3334C7.49725 12.3334 4.78418 15.0465 4.78418 18.3932C4.78418 21.7399 7.49725 24.453 10.844 24.453C14.1907 24.453 16.9038 21.7399 16.9038 18.3932C16.9038 18.1586 16.8905 17.9272 16.8645 17.6996C17.8683 18.0784 18.9562 18.2857 20.0925 18.2857Z" fill="white"/>
<circle id="Ellipse 830" cx="20.0931" cy="9.1434" r="7.54818" fill="#FC72FF"/>
<ellipse id="Ellipse 831" cx="10.8431" cy="18.3911" rx="4.46512" ry="4.46512" fill="#FC72FF"/>
<rect id="Rectangle 5290" x="14.2891" y="16.5073" width="2.2289" height="2.01994" transform="rotate(-133.548 14.2891 16.5073)" fill="#FC72FF"/>
</g>
<g id="logo">
<g id="AI">
<path id="Vector" d="M54.6211 6.11279H58.3349V22.9678H54.6211V6.11279Z" fill="white"/>
<path id="Vector_2" d="M42.57 6.11279H45.641L52.9734 22.9678H48.7835L47.3313 19.3968H40.7845L39.3799 22.9678H35.2852L42.57 6.11279ZM43.9983 11.0169L41.951 16.2544H46.0695L43.9983 11.0169Z" fill="white"/>
</g>
<g id="Cell.">
<path id="Vector_3" d="M115.768 20.8365C115.768 20.5451 115.821 20.269 115.929 20.0083C116.036 19.7476 116.182 19.5252 116.366 19.3411C116.565 19.1417 116.795 18.9884 117.056 18.881C117.317 18.7737 117.593 18.72 117.884 18.72C118.176 18.72 118.452 18.7737 118.712 18.881C118.973 18.9884 119.195 19.1417 119.379 19.3411C119.579 19.5252 119.732 19.7476 119.84 20.0083C119.947 20.269 120.001 20.5451 120.001 20.8365C120.001 21.1279 119.947 21.404 119.84 21.6647C119.732 21.9254 119.579 22.1555 119.379 22.3549C119.195 22.5389 118.973 22.6846 118.712 22.792C118.452 22.8994 118.176 22.953 117.884 22.953C117.593 22.953 117.317 22.8994 117.056 22.792C116.795 22.6846 116.565 22.5389 116.366 22.3549C116.182 22.1555 116.036 21.9254 115.929 21.6647C115.821 21.404 115.768 21.1279 115.768 20.8365Z" fill="white"/>
<path id="Vector_4" d="M103.917 6.52686H107.506V19.5021H114.155V22.815H103.917V6.52686Z" fill="white"/>
<path id="Vector_5" d="M91.5605 6.52686H95.1494V19.5021H101.798V22.815H91.5605V6.52686Z" fill="white"/>
<path id="Vector_6" d="M77.0693 6.52686H88.1351V9.83969H80.6582V12.8765H87.721V16.1893H80.6582V19.5021H88.5492V22.815H77.0693V6.52686Z" fill="white"/>
<path id="Vector_7" d="M71.8335 10.76C71.4808 10.3305 71.0437 10.0008 70.5222 9.77071C70.0161 9.54066 69.4256 9.42563 68.7507 9.42563C68.0759 9.42563 67.4471 9.55599 66.8643 9.81673C66.2968 10.0775 65.7983 10.4455 65.3689 10.921C64.9548 11.3811 64.625 11.9333 64.3796 12.5774C64.1496 13.2216 64.0346 13.9194 64.0346 14.6709C64.0346 15.4378 64.1496 16.1433 64.3796 16.7875C64.625 17.4163 64.9548 17.9684 65.3689 18.4439C65.783 18.904 66.2661 19.2644 66.8183 19.5252C67.3857 19.7859 67.9915 19.9163 68.6357 19.9163C69.3719 19.9163 70.0237 19.7629 70.5912 19.4562C71.1587 19.1494 71.6265 18.72 71.9946 18.1678L74.9853 20.3994C74.2951 21.3656 73.4209 22.0788 72.3626 22.5389C71.3044 22.999 70.2154 23.2291 69.0958 23.2291C67.8228 23.2291 66.6495 23.0297 65.5759 22.6309C64.5023 22.2322 63.5744 21.6647 62.7922 20.9285C62.01 20.177 61.3966 19.2721 60.9518 18.2138C60.5223 17.1556 60.3076 15.9746 60.3076 14.6709C60.3076 13.3673 60.5223 12.1863 60.9518 11.1281C61.3966 10.0698 62.01 9.17256 62.7922 8.43638C63.5744 7.68485 64.5023 7.10971 65.5759 6.71094C66.6495 6.31218 67.8228 6.11279 69.0958 6.11279C69.5559 6.11279 70.0314 6.1588 70.5222 6.25083C71.0283 6.32751 71.5191 6.45788 71.9946 6.64193C72.4853 6.82597 72.9531 7.07137 73.3979 7.37811C73.8427 7.68485 74.2415 8.06062 74.5942 8.50539L71.8335 10.76Z" fill="white"/>
</g>
</g>
</g>
</svg>
