<svg width="96" height="25" viewBox="0 0 96 25" fill="none" xmlns="http://www.w3.org/2000/svg">
<path d="M0.256 24L9.024 1.6H13.312L22.048 24H17.12L12.608 11.936C12.48 11.5947 12.32 11.1573 12.128 10.624C11.9573 10.0907 11.776 9.52533 11.584 8.928C11.392 8.33067 11.2107 7.76533 11.04 7.232C10.8693 6.67733 10.7413 6.21867 10.656 5.856L11.52 5.824C11.392 6.31467 11.2427 6.82667 11.072 7.36C10.9227 7.872 10.7627 8.40533 10.592 8.96C10.4213 9.49333 10.24 10.016 10.048 10.528C9.856 11.04 9.67467 11.5413 9.504 12.032L4.992 24H0.256ZM4.32 19.296L5.888 15.424H16.16L17.76 19.296H4.32ZM24.6173 24V19.872H28.3613V5.728H24.6173V1.6H36.9053V5.728H33.1613V19.872H36.9053V24H24.6173Z" fill="white"/>
<path d="M51.5173 24.32C49.8746 24.32 48.3599 24.0427 46.9733 23.488C45.6079 22.912 44.4133 22.112 43.3893 21.088C42.3866 20.0427 41.6079 18.816 41.0533 17.408C40.4986 15.9787 40.2213 14.4213 40.2213 12.736C40.2213 11.0933 40.5093 9.57867 41.0853 8.192C41.6613 6.784 42.4719 5.568 43.5173 4.544C44.5626 3.49867 45.7893 2.688 47.1973 2.112C48.6053 1.536 50.1306 1.248 51.7733 1.248C52.8399 1.248 53.8853 1.39733 54.9093 1.696C55.9546 1.97333 56.9039 2.38933 57.7573 2.944C58.6319 3.49867 59.3786 4.16 59.9973 4.928L56.9893 8.256C56.4773 7.744 55.9439 7.30667 55.3893 6.944C54.8559 6.56 54.2799 6.272 53.6613 6.08C53.0639 5.86667 52.4239 5.76 51.7413 5.76C50.8239 5.76 49.9599 5.93067 49.1493 6.272C48.3599 6.61333 47.6666 7.09333 47.0693 7.712C46.4719 8.30933 45.9919 9.04533 45.6293 9.92C45.2879 10.7733 45.1173 11.7227 45.1173 12.768C45.1173 13.8347 45.2879 14.8053 45.6293 15.68C45.9706 16.5333 46.4506 17.2693 47.0693 17.888C47.6879 18.4853 48.4239 18.9547 49.2773 19.296C50.1519 19.616 51.1119 19.776 52.1573 19.776C52.8399 19.776 53.5013 19.68 54.1413 19.488C54.7813 19.296 55.3679 19.0293 55.9013 18.688C56.4559 18.3467 56.9466 17.952 57.3733 17.504L59.7093 21.248C59.1973 21.824 58.5039 22.3467 57.6293 22.816C56.7759 23.2853 55.8159 23.6587 54.7493 23.936C53.6826 24.192 52.6053 24.32 51.5173 24.32ZM71.1478 24.32C69.3131 24.32 67.7131 23.9467 66.3478 23.2C64.9824 22.4533 63.9158 21.4293 63.1478 20.128C62.3798 18.8267 61.9958 17.3333 61.9958 15.648C61.9958 14.3467 62.2091 13.152 62.6358 12.064C63.0624 10.976 63.6598 10.0373 64.4278 9.248C65.1958 8.43733 66.1024 7.81867 67.1478 7.392C68.2144 6.944 69.3664 6.72 70.6038 6.72C71.7558 6.72 72.8224 6.93333 73.8038 7.36C74.7851 7.76533 75.6278 8.352 76.3318 9.12C77.0571 9.86667 77.6118 10.752 77.9958 11.776C78.3798 12.8 78.5504 13.92 78.5078 15.136L78.4757 16.544H64.8758L64.1398 13.76H74.7318L74.2198 14.336V13.632C74.1771 13.056 73.9851 12.5333 73.6438 12.064C73.3238 11.5947 72.9078 11.232 72.3958 10.976C71.8838 10.72 71.3078 10.592 70.6678 10.592C69.7291 10.592 68.9291 10.7733 68.2678 11.136C67.6278 11.4987 67.1371 12.032 66.7958 12.736C66.4544 13.44 66.2838 14.2933 66.2838 15.296C66.2838 16.32 66.4971 17.2053 66.9238 17.952C67.3718 18.6987 67.9904 19.2853 68.7798 19.712C69.5904 20.1173 70.5398 20.32 71.6278 20.32C72.3744 20.32 73.0571 20.2027 73.6758 19.968C74.2944 19.7333 74.9558 19.328 75.6598 18.752L77.8358 21.792C77.2171 22.3467 76.5344 22.816 75.7878 23.2C75.0411 23.5627 74.2731 23.84 73.4838 24.032C72.6944 24.224 71.9158 24.32 71.1478 24.32ZM81.8978 24V0.32H86.4418V24H81.8978ZM91.0853 24V0.32H95.6293V24H91.0853Z" fill="#FF37FF"/>
</svg>
