<svg width="223" height="176" viewBox="0 0 223 176" fill="none" xmlns="http://www.w3.org/2000/svg">
<path d="M99.1623 144.428C95.3165 139.624 97.0552 137.731 98.2929 136.736C99.0075 136.162 99.4569 135.292 99.4569 134.312C99.4569 132.949 98.5876 131.793 97.372 131.373C95.8469 130.842 90.012 129.148 94.7566 115.717L94.7418 115.732C96.7752 109.985 96.952 103.539 94.8082 97.3284C89.7836 82.7705 73.9055 75.0495 59.3491 80.0741C49.4953 83.4778 42.7741 91.8544 41.0184 101.425L41.0147 101.417C39.1457 111.643 35.2462 113.131 30.8464 112.358C30.1126 112.218 29.3545 112.144 28.5802 112.144C21.9407 112.144 16.5589 117.53 16.5589 124.168C16.5589 124.44 16.5692 124.713 16.5876 124.985H16.5869C17.4047 136.979 5.99554 143.22 2.89537 143.426H2.89611C1.27898 143.536 0 144.885 0 146.527C0 147.773 0.736044 148.848 1.79694 149.342C3.91726 150.329 4.38877 151.618 3.40671 153.733C3.2181 154.138 3.11201 154.587 3.11201 155.059C3.11201 156.775 4.50293 158.161 6.21879 158.161C6.7846 158.161 7.31358 158.013 7.77036 157.748C10.4565 156.201 39.9229 159.501 46.0164 169.867C48.0837 173.499 51.9921 175.953 56.4729 175.953C61.3508 175.953 65.5495 173.05 67.434 168.873C71.3181 160.754 76.3382 158.949 84.516 162.75C86.1073 163.531 87.8976 163.966 89.7836 163.966C96.4216 163.966 101.807 158.58 101.807 151.942C101.807 149.099 100.813 146.483 99.1623 144.428Z" fill="#F5F6FD" fill-opacity="0.2"/>
<path d="M218.977 61.8165C218.852 61.8607 218.727 61.905 218.609 61.9565C218.417 62.0449 218.16 62.1628 217.828 62.266C216.06 62.8111 212.413 62.7669 208.214 53.4988V53.5062C207.44 51.7896 206.475 50.1319 205.318 48.548C204.582 47.5386 203.779 46.5882 202.939 45.7042L202.946 45.7115C187.939 30.0412 196.875 23.5285 198.761 21.7677C198.776 21.7603 198.791 21.7456 198.798 21.7308L198.813 21.7235C199.218 21.3256 199.513 20.832 199.66 20.2868C199.808 19.7343 199.808 19.1449 199.631 18.5629C199.167 17.0673 197.678 16.1685 196.175 16.4116C194.687 16.6474 192.285 16.7652 190.974 12.5069C190.775 11.8586 190.598 11.1071 190.458 10.2378C190.37 9.64839 190.237 9.06638 190.061 8.48435C188.108 2.14107 181.374 -1.41736 175.031 0.534988C170.169 2.03056 166.942 6.32572 166.581 11.1145C165.888 17.9809 162.728 20.5889 155.839 19.9995C154.263 19.8301 152.627 19.97 151.021 20.4637C144.67 22.416 141.112 29.1497 143.064 35.493C144.331 39.604 147.603 42.5436 151.478 43.575C155.751 44.7611 158.587 47.7449 155.891 57.6982L155.898 57.6908C153.762 65.5813 155.095 74.341 160.296 81.4579C161.586 83.226 163.059 84.8027 164.651 86.173C172.46 92.8773 171.804 96.9293 168.938 100.311C166.316 103.339 165.262 107.612 166.529 111.723C168.482 118.066 175.208 121.632 181.551 119.68C187.895 117.727 191.46 110.994 189.508 104.65C189.257 103.855 188.941 103.111 188.558 102.403C186.546 98.5133 186.856 94.4318 195.881 89.643L195.873 89.6356C197.037 89.0241 198.165 88.3169 199.262 87.5138C203.381 84.5006 206.438 80.5664 208.346 76.205V76.2123C213.194 65.1687 217.415 67.0916 218.646 67.6367V67.6294C219.301 67.9241 220.068 67.983 220.804 67.7546C222.447 67.2536 223.368 65.515 222.86 63.872C222.359 62.2365 220.62 61.3156 218.977 61.8165Z" fill="#F5F6FD" fill-opacity="0.2"/>
<path d="M86.3584 85.0479C100.688 97.0419 152.046 78.432 155.361 60.0505L164.909 86.3888C150.58 74.3947 99.2218 92.9973 95.8991 111.386L86.3584 85.0479Z" fill="url(#paint0_linear_3847_11725)"/>
<path d="M166.043 28.4212C164.091 22.0779 157.364 18.5121 151.021 20.4645C144.67 22.4168 141.112 29.1432 143.064 35.4938C145.017 41.8371 151.743 45.3956 158.086 43.4432C164.437 41.4909 167.995 34.7645 166.043 28.4212Z" fill="url(#paint1_linear_3847_11725)"/>
<path d="M190.061 8.48493C188.108 2.14165 181.375 -1.41678 175.031 0.53557C168.688 2.48792 165.13 9.2143 167.082 15.5576C169.034 21.9009 175.761 25.4667 182.104 23.5143C188.447 21.562 192.013 14.8356 190.061 8.48493Z" fill="url(#paint2_linear_3847_11725)"/>
<path d="M189.508 104.65C187.548 98.307 180.822 94.7486 174.479 96.7009C168.135 98.6533 164.577 105.38 166.529 111.723C168.481 118.066 175.208 121.632 181.551 119.68C187.894 117.727 191.46 110.994 189.508 104.65Z" fill="url(#paint3_linear_3847_11725)"/>
<path d="M222.86 63.8731C222.359 62.2376 220.62 61.3166 218.977 61.8176C217.342 62.326 216.421 64.0647 216.922 65.7002C217.43 67.3431 219.169 68.264 220.804 67.7557C222.447 67.2547 223.368 65.516 222.86 63.8731Z" fill="url(#paint4_linear_3847_11725)"/>
<path d="M199.631 18.5649C199.13 16.9294 197.391 16.0085 195.748 16.5095C194.105 17.0178 193.184 18.7565 193.693 20.392C194.194 22.035 195.932 22.9559 197.575 22.4475C199.218 21.9466 200.139 20.2079 199.631 18.5649Z" fill="url(#paint5_linear_3847_11725)"/>
<path d="M199.262 87.5143C211.691 78.4304 214.409 60.9845 205.318 48.5484C196.234 36.1197 178.788 33.4012 166.352 42.4925C153.916 51.5764 151.205 69.0223 160.296 81.4584C169.38 93.8871 186.826 96.6056 199.262 87.5143Z" fill="url(#paint6_linear_3847_11725)"/>
<path d="M68.494 163.929C68.494 157.291 63.1122 151.913 56.4727 151.913C49.834 151.913 44.4521 157.291 44.4521 163.929C44.4521 170.567 49.834 175.953 56.4727 175.953C63.1122 175.953 68.494 170.567 68.494 163.929Z" fill="url(#paint7_linear_3847_11725)"/>
<path d="M101.807 151.943C101.807 145.305 96.4212 139.927 89.7833 139.927C83.1453 139.927 77.7598 145.305 77.7598 151.943C77.7598 158.581 83.1453 163.967 89.7833 163.967C96.4212 163.967 101.807 158.581 101.807 151.943Z" fill="url(#paint8_linear_3847_11725)"/>
<path d="M77.5541 132.788C92.112 127.763 99.8404 111.887 94.8085 97.3288C89.7839 82.7709 73.9058 75.05 59.3494 80.0745C44.793 85.1064 37.0684 100.976 42.0959 115.534C47.1241 130.091 63 137.82 77.5541 132.788Z" fill="url(#paint9_linear_3847_11725)"/>
<path d="M40.6005 124.168C40.6005 117.53 35.2186 112.144 28.5799 112.144C21.9405 112.144 16.5586 117.53 16.5586 124.168C16.5586 130.806 21.9405 136.184 28.5799 136.184C35.2186 136.184 40.6005 130.806 40.6005 124.168Z" fill="url(#paint10_linear_3847_11725)"/>
<path d="M9.32591 155.06C9.32591 153.343 7.93493 151.951 6.21908 151.951C4.50322 151.951 3.1123 153.343 3.1123 155.06C3.1123 156.776 4.50322 158.161 6.21908 158.161C7.93493 158.161 9.32591 156.776 9.32591 155.06Z" fill="url(#paint11_linear_3847_11725)"/>
<path d="M99.4568 134.312C99.4568 132.595 98.0717 131.203 96.3551 131.203C94.6385 131.203 93.2461 132.595 93.2461 134.312C93.2461 136.028 94.6385 137.413 96.3551 137.413C98.0717 137.413 99.4568 136.028 99.4568 134.312Z" fill="url(#paint12_linear_3847_11725)"/>
<path d="M6.21366 146.528C6.21366 144.811 4.82269 143.419 3.10683 143.419C1.39098 143.419 0 144.811 0 146.528C0 148.245 1.39098 149.637 3.10683 149.637C4.82269 149.637 6.21366 148.245 6.21366 146.528Z" fill="url(#paint13_linear_3847_11725)"/>
<defs>
<linearGradient id="paint0_linear_3847_11725" x1="93.0352" y1="105.611" x2="162.549" y2="89.4277" gradientUnits="userSpaceOnUse">
<stop stop-color="#8E5EFF"/>
<stop offset="1" stop-color="#ED039D"/>
</linearGradient>
<linearGradient id="paint1_linear_3847_11725" x1="144.573" y1="41.2728" x2="166.501" y2="37.9365" gradientUnits="userSpaceOnUse">
<stop stop-color="#8E5EFF"/>
<stop offset="1" stop-color="#ED039D"/>
</linearGradient>
<linearGradient id="paint2_linear_3847_11725" x1="168.591" y1="21.3432" x2="190.518" y2="18.0071" gradientUnits="userSpaceOnUse">
<stop stop-color="#8E5EFF"/>
<stop offset="1" stop-color="#ED039D"/>
</linearGradient>
<linearGradient id="paint3_linear_3847_11725" x1="168.038" y1="117.509" x2="189.965" y2="114.172" gradientUnits="userSpaceOnUse">
<stop stop-color="#8E5EFF"/>
<stop offset="1" stop-color="#ED039D"/>
</linearGradient>
<linearGradient id="paint4_linear_3847_11725" x1="217.313" y1="67.1964" x2="222.98" y2="66.3343" gradientUnits="userSpaceOnUse">
<stop stop-color="#8E5EFF"/>
<stop offset="1" stop-color="#ED039D"/>
</linearGradient>
<linearGradient id="paint5_linear_3847_11725" x1="194.081" y1="21.8883" x2="199.751" y2="21.0252" gradientUnits="userSpaceOnUse">
<stop stop-color="#8E5EFF"/>
<stop offset="1" stop-color="#ED039D"/>
</linearGradient>
<linearGradient id="paint6_linear_3847_11725" x1="159.66" y1="86.6152" x2="210.515" y2="78.8774" gradientUnits="userSpaceOnUse">
<stop stop-color="#8E5EFF"/>
<stop offset="1" stop-color="#ED039D"/>
</linearGradient>
<linearGradient id="paint7_linear_3847_11725" x1="46.4957" y1="173.248" x2="68.4171" y2="169.913" gradientUnits="userSpaceOnUse">
<stop stop-color="#8E5EFF"/>
<stop offset="1" stop-color="#ED039D"/>
</linearGradient>
<linearGradient id="paint8_linear_3847_11725" x1="79.8038" y1="161.262" x2="101.73" y2="157.925" gradientUnits="userSpaceOnUse">
<stop stop-color="#8E5EFF"/>
<stop offset="1" stop-color="#ED039D"/>
</linearGradient>
<linearGradient id="paint9_linear_3847_11725" x1="45.3023" y1="128.049" x2="96.1674" y2="120.31" gradientUnits="userSpaceOnUse">
<stop stop-color="#8E5EFF"/>
<stop offset="1" stop-color="#ED039D"/>
</linearGradient>
<linearGradient id="paint10_linear_3847_11725" x1="18.6022" y1="133.48" x2="40.5236" y2="130.144" gradientUnits="userSpaceOnUse">
<stop stop-color="#8E5EFF"/>
<stop offset="1" stop-color="#ED039D"/>
</linearGradient>
<linearGradient id="paint11_linear_3847_11725" x1="3.64046" y1="157.463" x2="9.30595" y2="156.6" gradientUnits="userSpaceOnUse">
<stop stop-color="#8E5EFF"/>
<stop offset="1" stop-color="#ED039D"/>
</linearGradient>
<linearGradient id="paint12_linear_3847_11725" x1="93.774" y1="136.715" x2="99.4369" y2="135.853" gradientUnits="userSpaceOnUse">
<stop stop-color="#8E5EFF"/>
<stop offset="1" stop-color="#ED039D"/>
</linearGradient>
<linearGradient id="paint13_linear_3847_11725" x1="0.528161" y1="148.937" x2="6.194" y2="148.076" gradientUnits="userSpaceOnUse">
<stop stop-color="#8E5EFF"/>
<stop offset="1" stop-color="#ED039D"/>
</linearGradient>
</defs>
</svg>
