<svg width="202" height="185" viewBox="0 0 202 185" fill="none" xmlns="http://www.w3.org/2000/svg">
<path d="M137.414 64.3217L143.201 41.9099C143.56 40.8898 143.912 39.8928 144.257 38.9196C146.616 32.268 156.044 32.3205 158.327 38.998C162.987 52.6245 168.14 70.1742 170.79 84.6132C171.929 90.8156 165.311 95.5247 159.811 92.4407L142.754 79.5934C138.05 76.0506 135.942 70.0232 137.414 64.3217ZM116.67 126.2C118.163 122.571 121.848 120.341 125.756 120.701L149.758 122.919C156.043 123.672 158.582 131.42 153.966 135.752C143.384 145.688 129.058 156.581 117.4 164.659C111.617 168.667 104.016 163.158 106.017 156.413C106.487 154.829 106.979 153.181 107.493 151.478C108.981 146.789 110.621 141.791 112.34 136.722L116.67 126.2ZM101.534 160.853C100.841 162.769 98.0121 162.324 97.9404 160.288C97.625 151.326 97.4309 139.805 97.3592 127.696C97.3477 125.724 98.6995 124.009 100.617 123.548C102.97 122.983 105.528 122.498 108.232 122.093C111.205 121.648 113.678 124.366 112.965 127.286C112.79 128.009 112.596 128.768 112.388 129.56C108.314 141.648 104.546 152.536 101.534 160.853ZM99.0685 47.3398C97.5944 48.3034 95.6748 48.2327 94.2762 47.1639C85.3952 40.3755 75.9521 33.3415 69.7144 27.7682C65.5444 24.0437 67.7441 17.1463 73.2974 16.503C88.5786 14.7344 108.811 14.2516 124.438 14.5002C131.498 14.6121 134.458 23.5676 128.853 27.8618L99.0685 47.3398ZM95.2303 132.899C95.2073 142.068 95.2446 151.943 95.1432 159.66C95.1165 161.716 92.2591 162.203 91.5517 160.273L83.7232 138.932C82.6889 136.111 83.7576 132.95 86.2928 131.337L89.1206 129.537C91.7706 127.85 95.2379 129.758 95.2303 132.899ZM82.295 148.38L87.0758 156.341C89.1025 163.065 81.5512 168.605 75.7485 164.649C62.7224 155.769 46.012 143.613 33.5537 133.612C31.9506 132.326 31.0816 130.649 30.833 128.923C30.096 123.79 34.9217 119.6 39.9396 120.909L48.6227 123.174C62.7109 126.85 74.7982 135.898 82.295 148.38ZM30.4678 98.081C24.7196 101.814 17.4054 96.4644 19.2237 89.8567C23.2101 75.3709 29.379 57.3919 35.4379 44.0436C37.7457 38.9588 44.9795 38.9961 47.2528 44.0972L57.7016 71.8118C58.5257 73.9971 57.8402 76.4635 56.0076 77.9118L30.4678 98.081ZM35.2085 106.458C32.8377 107.086 31.2871 104.04 33.1876 102.49C39.6567 97.2158 47.5367 91.0412 56.1233 84.466C56.1424 84.4545 56.1625 84.4431 56.1816 84.4325C58.3775 83.1448 61.188 84.4354 61.6412 86.9401C62.058 89.2421 62.3954 91.4637 62.6421 93.5745C62.9604 96.2962 61.2827 98.8563 58.6652 99.666C50.3272 102.246 42.2569 104.591 35.2085 106.458ZM48.1753 114.404C45.4002 114.939 42.5705 115.142 39.7456 115.014C39.1089 114.985 38.4799 114.956 37.8604 114.925C35.3988 114.803 34.8548 111.405 37.1558 110.523C43.7855 107.98 51.4295 105.247 59.4071 102.543C61.1727 101.945 62.9805 103.333 62.8562 105.192C62.6029 109.003 59.8115 112.162 56.0621 112.885L48.1753 114.404ZM59.6556 43.3438C64.9249 49.2737 70.7 56.3011 76.4511 63.6277C77.0773 64.425 76.9339 65.5788 76.1328 66.1983L76.1175 66.2088C72.1531 68.8435 68.8492 70.939 66.5367 72.2534C65.5655 72.8069 64.3332 72.3653 63.9307 71.3233C63.0436 69.0261 62.1899 66.6849 61.3754 64.3284C59.4979 57.3469 57.8431 50.7966 56.5133 44.9623C56.0937 43.1221 58.4023 41.9338 59.6556 43.3438ZM77.1098 96.7665C77.0668 96.8172 77.0237 96.8678 76.9798 96.9176C76.9568 96.8879 76.9358 96.8583 76.9128 96.8286C76.9788 96.8076 77.0438 96.7866 77.1098 96.7665ZM67.7517 37.5019C74.4273 41.5371 82.0015 46.4603 89.9303 51.8845C90.8978 52.5461 90.9972 53.9332 90.1387 54.7295C88.2144 56.5133 85.2499 58.997 81.5713 61.9318C80.7377 62.5972 79.5131 62.4088 78.9185 61.5236C73.8996 54.0469 69.159 46.6429 65.2366 39.9893C64.2758 38.3575 66.1323 36.522 67.7517 37.5019ZM136.002 32.1857C130.54 40.1662 123.553 49.8483 116.176 59.409C114.886 61.0791 112.524 61.4691 110.766 60.3028L104.041 55.8442C102.465 54.7983 102.37 52.5193 103.855 51.3463L132.525 28.7184C134.805 27.1497 137.564 29.9009 136.002 32.1857ZM135.571 87.5767L151.212 99.8189C152.363 100.719 151.523 102.559 150.089 102.278C143.932 101.068 137.192 99.4767 130.291 97.6699C128.804 97.2808 128.077 95.5993 128.809 94.2475L132.028 88.3128C132.727 87.0232 134.417 86.6724 135.571 87.5767ZM127.769 101.449C134.098 103.919 140.189 106.459 145.656 108.972C147.34 109.748 146.933 112.249 145.089 112.448C138.961 113.111 132.089 113.655 124.781 114.089C122.979 114.197 121.57 112.555 121.949 110.791L123.458 103.766C123.874 101.831 125.925 100.729 127.769 101.449ZM142.213 36.2773C140.697 41.4176 138.919 47.2834 136.957 53.6368C134.728 59.3249 132.438 64.3093 130.399 67.4286C129.395 68.963 127.439 69.5538 125.751 68.8387C124.264 68.2097 122.483 67.3235 120.472 66.2241C118.391 65.0865 117.738 62.4098 119.061 60.4405C125.528 50.8177 132.188 41.5361 137.827 34.0652C139.5 31.8473 142.999 33.613 142.213 36.2773ZM191.662 102.492C176.585 95.3641 153.266 18.7075 154.893 14.9763C155.113 14.4754 155.237 13.9209 155.237 13.3387C155.237 11.0874 153.411 9.26147 151.159 9.26147C150.096 9.26147 149.127 9.66872 148.401 10.3369V10.336C145.399 13.094 60.7349 14.1379 51.7124 4.31528C49.2738 1.66341 45.7758 0 41.8888 0C34.5231 0 28.5511 5.97197 28.5511 13.3387C28.5511 15.6665 29.1476 17.8547 30.1963 19.76C36.3757 31.7278 11.2738 106.592 4.22062 110.603C1.70832 111.947 0 114.596 0 117.644C0 122.052 3.57344 125.625 7.98047 125.625C8.48714 125.625 8.98232 125.578 9.46126 125.488C17.4417 124.152 91.8432 177.653 92.5975 181.665C92.9464 183.562 94.6079 185 96.6059 185C98.5494 185 100.174 183.641 100.583 181.821C100.799 180.864 104.681 177.365 110.673 172.655C129.482 157.873 169.085 131.165 181.449 133.662C182.663 133.948 183.929 134.1 185.231 134.1C194.32 134.1 201.687 126.732 201.687 117.644C201.687 110.838 197.555 104.997 191.662 102.492Z" fill="#F5F6FD" fill-opacity="0.2"/>
<path d="M55.2272 13.3403C55.2272 20.707 49.2552 26.678 41.8885 26.678C34.5227 26.678 28.5508 20.707 28.5508 13.3403C28.5508 5.97357 34.5227 0.00256729 41.8885 0.00256729C49.2552 0.00256729 55.2272 5.97357 55.2272 13.3403Z" fill="url(#paint0_linear_3847_11710)"/>
<path d="M201.688 117.644C201.688 126.733 194.32 134.1 185.232 134.1C176.143 134.1 168.775 126.733 168.775 117.644C168.775 108.556 176.143 101.188 185.232 101.188C194.32 101.188 201.688 108.556 201.688 117.644Z" fill="url(#paint1_linear_3847_11710)"/>
<path d="M92.5558 117.644C92.5558 126.733 85.1881 134.1 76.0997 134.1C67.0113 134.1 59.6436 126.733 59.6436 117.644C59.6436 108.556 67.0113 101.188 76.0997 101.188C85.1881 101.188 92.5558 108.556 92.5558 117.644Z" fill="url(#paint2_linear_3847_11710)"/>
<path d="M15.9619 117.643C15.9619 122.051 12.3894 125.624 7.98144 125.624C3.57345 125.624 0 122.051 0 117.643C0 113.235 3.57345 109.661 7.98144 109.661C12.3894 109.661 15.9619 113.235 15.9619 117.643Z" fill="url(#paint3_linear_3847_11710)"/>
<path d="M138.888 77.8174C138.888 82.2254 135.315 85.7979 130.907 85.7979C126.499 85.7979 122.926 82.2254 122.926 77.8174C122.926 73.4094 126.499 69.836 130.907 69.836C135.315 69.836 138.888 73.4094 138.888 77.8174Z" fill="url(#paint4_linear_3847_11710)"/>
<path d="M155.236 13.3393C155.236 15.5906 153.411 17.4165 151.159 17.4165C148.907 17.4165 147.082 15.5906 147.082 13.3393C147.082 11.087 148.907 9.26205 151.159 9.26205C153.411 9.26205 155.236 11.087 155.236 13.3393Z" fill="url(#paint5_linear_3847_11710)"/>
<path d="M100.684 52.6362C100.684 54.8875 98.8588 56.7134 96.6065 56.7134C94.3552 56.7134 92.5293 54.8875 92.5293 52.6362C92.5293 50.3839 94.3552 48.559 96.6065 48.559C98.8588 48.559 100.684 50.3839 100.684 52.6362Z" fill="url(#paint6_linear_3847_11710)"/>
<path d="M121.785 117.645C121.785 119.897 119.959 121.722 117.708 121.722C115.456 121.722 113.631 119.897 113.631 117.645C113.631 115.394 115.456 113.568 117.708 113.568C119.959 113.568 121.785 115.394 121.785 117.645Z" fill="url(#paint7_linear_3847_11710)"/>
<path d="M100.684 180.923C100.684 183.174 98.8588 185 96.6065 185C94.3552 185 92.5293 183.174 92.5293 180.923C92.5293 178.671 94.3552 176.846 96.6065 176.846C98.8588 176.846 100.684 178.671 100.684 180.923Z" fill="url(#paint8_linear_3847_11710)"/>
<defs>
<linearGradient id="paint0_linear_3847_11710" x1="30.8183" y1="23.677" x2="55.142" y2="19.9761" gradientUnits="userSpaceOnUse">
<stop stop-color="#8E5EFF"/>
<stop offset="1" stop-color="#ED039D"/>
</linearGradient>
<linearGradient id="paint1_linear_3847_11710" x1="171.573" y1="130.398" x2="201.583" y2="125.832" gradientUnits="userSpaceOnUse">
<stop stop-color="#8E5EFF"/>
<stop offset="1" stop-color="#ED039D"/>
</linearGradient>
<linearGradient id="paint2_linear_3847_11710" x1="62.4411" y1="130.398" x2="92.4507" y2="125.832" gradientUnits="userSpaceOnUse">
<stop stop-color="#8E5EFF"/>
<stop offset="1" stop-color="#ED039D"/>
</linearGradient>
<linearGradient id="paint3_linear_3847_11710" x1="1.35676" y1="123.828" x2="15.911" y2="121.614" gradientUnits="userSpaceOnUse">
<stop stop-color="#8E5EFF"/>
<stop offset="1" stop-color="#ED039D"/>
</linearGradient>
<linearGradient id="paint4_linear_3847_11710" x1="124.283" y1="84.0021" x2="138.837" y2="81.7878" gradientUnits="userSpaceOnUse">
<stop stop-color="#8E5EFF"/>
<stop offset="1" stop-color="#ED039D"/>
</linearGradient>
<linearGradient id="paint5_linear_3847_11710" x1="147.775" y1="16.4991" x2="155.21" y2="15.3681" gradientUnits="userSpaceOnUse">
<stop stop-color="#8E5EFF"/>
<stop offset="1" stop-color="#ED039D"/>
</linearGradient>
<linearGradient id="paint6_linear_3847_11710" x1="93.2224" y1="55.7961" x2="100.658" y2="54.6648" gradientUnits="userSpaceOnUse">
<stop stop-color="#8E5EFF"/>
<stop offset="1" stop-color="#ED039D"/>
</linearGradient>
<linearGradient id="paint7_linear_3847_11710" x1="114.324" y1="120.805" x2="121.759" y2="119.674" gradientUnits="userSpaceOnUse">
<stop stop-color="#8E5EFF"/>
<stop offset="1" stop-color="#ED039D"/>
</linearGradient>
<linearGradient id="paint8_linear_3847_11710" x1="93.2224" y1="184.083" x2="100.658" y2="182.951" gradientUnits="userSpaceOnUse">
<stop stop-color="#8E5EFF"/>
<stop offset="1" stop-color="#ED039D"/>
</linearGradient>
</defs>
</svg>
