<svg width="213" height="272" viewBox="0 0 213 272" fill="none" xmlns="http://www.w3.org/2000/svg">
<path d="M39.1858 152.855C56.7797 154.423 147.486 211.547 158.383 231.717C161.914 238.6 169.875 242.334 177.649 240.25C186.6 237.852 191.912 228.652 189.513 219.702C188.834 217.168 187.61 214.926 186.001 213.068C171.388 195.247 144.45 102.275 159.373 55.8238C161.584 49.2961 161.955 42.0609 160.037 34.9029C154.872 15.6268 135.058 4.18737 115.781 9.35275C100.564 13.43 90.2313 26.6344 89.0928 41.4981C84.2003 89.7018 49.8402 120.867 34.375 128.613C28.9646 131.226 25.9958 137.39 27.6099 143.414C29.0691 148.86 33.8462 152.541 39.1858 152.855Z" fill="#F5F6FD" fill-opacity="0.2"/>
<path d="M157.1 228.387C154.701 219.436 160.013 210.236 168.963 207.837C177.914 205.439 187.114 210.751 189.513 219.702C191.911 228.652 186.599 237.853 177.649 240.251C168.698 242.649 159.498 237.337 157.1 228.387Z" fill="url(#paint0_linear_3847_11697)"/>
<path d="M124.276 189.665C121.878 180.718 127.19 171.517 136.14 169.119C145.091 166.72 154.291 172.033 156.689 180.98C159.088 189.934 153.776 199.134 144.825 201.532C135.875 203.93 126.675 198.619 124.276 189.665Z" fill="url(#paint1_linear_3847_11697)"/>
<path d="M122.823 151.61C120.423 142.655 125.737 133.461 134.687 131.063C143.638 128.665 152.836 133.97 155.235 142.925C157.633 151.872 152.322 161.073 143.371 163.472C134.421 165.87 125.22 160.557 122.823 151.61Z" fill="url(#paint2_linear_3847_11697)"/>
<path d="M27.6091 143.414C25.7836 136.601 29.8244 129.598 36.6351 127.773C43.4451 125.949 50.4459 129.993 52.2713 136.806C54.095 143.612 50.0543 150.614 43.2443 152.439C36.4335 154.264 29.4327 150.22 27.6091 143.414Z" fill="url(#paint3_linear_3847_11697)"/>
<path d="M55.0958 130.122C53.2722 123.317 57.3136 116.314 64.1236 114.489C70.9336 112.664 77.9351 116.708 79.7587 123.514C81.5842 130.327 77.5428 137.33 70.7328 139.155C63.9227 140.979 56.9213 136.935 55.0958 130.122Z" fill="url(#paint4_linear_3847_11697)"/>
<path d="M92.7208 121.226C90.8953 114.413 94.9386 107.417 101.749 105.593C108.559 103.768 115.558 107.805 117.384 114.618C119.207 121.423 115.167 128.426 108.356 130.251C101.546 132.076 94.5444 128.032 92.7208 121.226Z" fill="url(#paint5_linear_3847_11697)"/>
<path d="M90.2272 53.6081C85.0622 34.3321 96.5023 14.5182 115.78 9.3528C135.057 4.18742 154.872 15.6267 160.037 34.9027C165.202 54.1788 153.763 73.9997 134.486 79.1651C115.208 84.3305 95.3922 72.8842 90.2272 53.6081Z" fill="url(#paint6_linear_3847_11697)"/>
<defs>
<linearGradient id="paint0_linear_3847_11697" x1="183.392" y1="207.88" x2="155.042" y2="220.295" gradientUnits="userSpaceOnUse">
<stop stop-color="#8E5EFF"/>
<stop offset="1" stop-color="#ED039D"/>
</linearGradient>
<linearGradient id="paint1_linear_3847_11697" x1="150.569" y1="169.161" x2="122.219" y2="181.576" gradientUnits="userSpaceOnUse">
<stop stop-color="#8E5EFF"/>
<stop offset="1" stop-color="#ED039D"/>
</linearGradient>
<linearGradient id="paint2_linear_3847_11697" x1="149.115" y1="131.105" x2="120.766" y2="143.521" gradientUnits="userSpaceOnUse">
<stop stop-color="#8E5EFF"/>
<stop offset="1" stop-color="#ED039D"/>
</linearGradient>
<linearGradient id="paint3_linear_3847_11697" x1="47.6131" y1="127.806" x2="26.0424" y2="137.252" gradientUnits="userSpaceOnUse">
<stop stop-color="#8E5EFF"/>
<stop offset="1" stop-color="#ED039D"/>
</linearGradient>
<linearGradient id="paint4_linear_3847_11697" x1="75.1023" y1="114.521" x2="53.531" y2="123.968" gradientUnits="userSpaceOnUse">
<stop stop-color="#8E5EFF"/>
<stop offset="1" stop-color="#ED039D"/>
</linearGradient>
<linearGradient id="paint5_linear_3847_11697" x1="112.727" y1="105.624" x2="91.1563" y2="115.072" gradientUnits="userSpaceOnUse">
<stop stop-color="#8E5EFF"/>
<stop offset="1" stop-color="#ED039D"/>
</linearGradient>
<linearGradient id="paint6_linear_3847_11697" x1="146.855" y1="9.44393" x2="85.7972" y2="36.1839" gradientUnits="userSpaceOnUse">
<stop stop-color="#8E5EFF"/>
<stop offset="1" stop-color="#ED039D"/>
</linearGradient>
</defs>
</svg>
